<?xml version="1.0" encoding="UTF-8" standalone="no"?>
<!-- Created with Inkscape (http://www.inkscape.org/) -->

<svg
   xmlns:dc="http://purl.org/dc/elements/1.1/"
   xmlns:cc="http://creativecommons.org/ns#"
   xmlns:rdf="http://www.w3.org/1999/02/22-rdf-syntax-ns#"
   xmlns:svg="http://www.w3.org/2000/svg"
   xmlns="http://www.w3.org/2000/svg"
   xmlns:sodipodi="http://sodipodi.sourceforge.net/DTD/sodipodi-0.dtd"
   xmlns:inkscape="http://www.inkscape.org/namespaces/inkscape"
   id="svg2"
   height="79.731mm"
   viewBox="0 0 285.89843 282.51172"
   width="80.687mm"
   version="1.1"
   inkscape:version="0.91 r13725"
   sodipodi:docname="die.svg">
  <defs
     id="defs8" />
  <sodipodi:namedview
     pagecolor="#ffffff"
     bordercolor="#666666"
     borderopacity="1"
     objecttolerance="10"
     gridtolerance="10"
     guidetolerance="10"
     inkscape:pageopacity="0"
     inkscape:pageshadow="2"
     inkscape:window-width="1280"
     inkscape:window-height="962"
     id="namedview6"
     showgrid="false"
     inkscape:zoom="0.83536444"
     inkscape:cx="142.9494"
     inkscape:cy="140.05863"
     inkscape:window-x="-8"
     inkscape:window-y="-8"
     inkscape:window-maximized="1"
     inkscape:current-layer="svg2" />
  <metadata
     id="metadata7">
    <rdf:RDF>
      <cc:Work
         rdf:about="">
        <dc:format>image/svg+xml</dc:format>
        <dc:type
           rdf:resource="http://purl.org/dc/dcmitype/StillImage" />
        <dc:title />
      </cc:Work>
    </rdf:RDF>
  </metadata>
  <path
     inkscape:connector-curvature="0"
     d="M 22.56,0 C 10.059,0 -0.004,11.346 -0.004,25.439 l 0,231.63 c 0,14.093 10.064,25.439 22.564,25.439 l 240.77,0 c 12.501,0 22.564,-11.346 22.564,-25.439 l 0,-231.63 C 285.894,11.346 275.83,0 263.33,0 Z m 62.652,39.482 78.191,0 -13.797,14.756 -9.7109,1.5274 c 3.4924,4.2625 8.066,10.8 10.76,19.969 1.2721,7.6511 0.69881,15.124 -0.53907,22.775 -2.868,9.5413 -9.5664,17.807 -9.5664,17.807 -5.5945,3.7548 -11.193,7.3496 -16.496,11.201 l -1.8945,8.6367 3.6055,5.1914 c 8.0652,2.607 19.092,10.797 19.092,10.797 0,0 10.496,9.8624 13.947,17.609 1.5199,7.3583 4.8466,13.518 2.6192,23.363 -1.0922,6.9453 -2.3942,13.787 -6.1973,19.383 -5.6871,10.687 -9.8395,13.735 -14.223,17.93 -7.6134,4.0709 -15.829,7.8406 -26.148,10.564 -8.6107,0.58901 -16.388,2.6189 -24.994,1.875 -9.1185,-1.0606 -18.317,-2.043 -26.113,-4.4199 -9.7143,-4.9308 -13.113,-8.2885 -17.639,-11.928 -4.152,-5.5267 -7.5495,-9.7823 -9.9766,-17.074 -1.2775,-5.7326 -2.2731,-12.292 0.23047,-24.291 3.5138,-5.9827 6.6354,-11.965 14.098,-17.947 5.4079,-2.6003 12.078,-5.5148 22.9,-9.4629 10.254,-4.2532 17.925,-5.4167 24.117,-4.2773 -1.9762,-3.2337 -2.1211,-11.17 -2.1211,-11.17 l 0.58789,-8.166 c -2.9342,-4.8296 -13.406,-2.6639 -20.01,-3.8398 -10.677,-2.7996 -15.55,-8.0538 -19.52,-12.506 -3.3027,-3.856 -8.0048,-9.3964 -10.176,-16.809 -1.8581,-7.7672 -0.47153,-16.145 0.63789,-24.09 2.6014,-10.08 4.0706,-16.246 15.456,-25.538 6.4267,-6.2946 14.717,-9.4553 22.879,-11.865 z m 9.7109,13.738 -10.078,1.5078 c -2.2686,1.4745 -4.624,2.1754 -6.7871,4.5996 -1.8674,3.696 -3.7766,7.3733 -4.2539,11.648 0,0 -1.0224,-1.5253 -0.3457,17.357 -0.66984,8.412 3.262,13.297 6.5859,16.6 1.7871,3.0122 4.1743,5.6492 6.1328,8.6504 8.1623,3.3424 12.5,4.4883 17.434,5.2812 7.6952,-1.3472 9.854,-4.531 13.799,-7.123 4.704,-5.8583 4.8351,-10.199 5.623,-14.758 -0.0907,-11.304 -4.7697,-20.752 -8.6914,-29.514 -3.1462,-5.0153 -4.7596,-6.9806 -6.6016,-9.3984 -4.272,-3.3658 -8.5444,-4.1408 -12.816,-4.8516 z m 113.47,47.07 14.143,0 0,28.535 28.537,0 0,14.143 -28.537,0 0,28.537 -14.143,0 0,-28.537 -28.535,0 0,-14.143 28.535,0 z m -95.584,64.371 c -13.803,0.74544 -22.616,2.4868 -29.641,4.582 -8.3999,1.8134 -13.541,6.8723 -17.889,12.721 -3.3344,5.4279 -4.161,10.855 -2.0449,16.283 0.95501,10.211 7.5646,17.608 19.422,22.391 7.1066,4.8683 18.619,6.3216 35.264,3.0527 3.9974,-0.0556 8.7056,-3.5652 15.424,-9.0391 2.5492,-4.5186 5.8932,-8.5227 7.0625,-14.877 -0.26592,-10.279 -3.8027,-12.417 -6.6445,-16.283 -6.9845,-8.2744 -13.969,-13.084 -20.953,-18.83 z"
     id="rect4162" />
</svg>
